# This file uses centimeters as units for non-parametric coordinates.

mtllib Refinery.mtl
g default
v 2.665878 0.038682 1.886193
v 2.670656 0.729481 1.875555
v 2.670656 0.729481 -1.875555
v 2.665878 0.038682 -1.886193
v 1.993911 1.091472 1.276815
v 1.993911 1.091472 -1.276815
v -1.653609 1.895880 1.591508
v -1.653609 1.895880 -1.591508
v 1.906527 1.886021 1.138201
v 1.906527 1.886021 -1.138201
v -1.670575 4.535769 1.352905
v -1.670575 4.535769 -1.352905
v 1.081698 4.535769 1.054940
v 1.081698 4.535769 -1.054940
v -1.671325 6.038170 1.054940
v -1.671325 6.038170 -1.054940
v -2.307357 0.653119 2.173554
v -2.307357 0.653118 -2.173554
v -2.309237 0.028441 2.196951
v -2.309237 0.028441 -2.196951
vt 0.998334 0.857351
vt 0.998133 0.909361
vt 0.623570 0.911281
vt 0.623568 0.864250
vt 0.947299 0.830254
vt 0.940537 0.770454
vt 0.672500 0.770534
vt 0.670613 0.571787
vt 0.877825 0.571151
vt 0.670209 0.458674
vt 0.078945 0.316802
vt 0.318589 0.316805
vt 0.362409 0.406213
vt 0.035123 0.406209
vt 0.096911 0.218532
vt 0.300626 0.218535
vt 0.033361 0.429847
vt 0.364170 0.429851
vt 0.119345 0.162025
vt 0.278194 0.162027
vt 0.278195 0.039082
vt 0.119346 0.039080
vt 0.059628 0.557739
vt 0.343644 0.557739
vt 0.342843 0.609748
vt 0.060429 0.609748
vt 0.297765 0.637002
vt 0.105507 0.637002
vt 0.287329 0.696822
vt 0.115943 0.696822
vt 0.281061 0.896316
vt 0.122212 0.896316
vt 0.417803 0.001269
vt 0.792366 0.003189
vt 0.792566 0.055199
vt 0.417800 0.048300
vt 0.741532 0.082296
vt 0.734770 0.142096
vt 0.466732 0.142016
vt 0.464845 0.340763
vt 0.672058 0.341399
vt 0.464442 0.453875
vn 0.060807 0.025509 0.997824
vn 0.060807 0.025509 0.997824
vn 0.060807 0.025509 0.997824
vn 0.060807 0.025509 0.997824
vn 0.060807 0.025509 -0.997824
vn 0.060807 0.025509 -0.997824
vn 0.060807 0.025509 -0.997824
vn 0.060807 0.025509 -0.997824
vn 0.999976 -0.006917 0.000000
vn 0.999976 -0.006917 0.000000
vn 0.999976 -0.006917 0.000000
vn 0.999976 -0.006917 0.000000
vn 0.286651 0.928210 0.237188
vn 0.327643 0.925643 0.189303
vn 0.016874 0.863964 0.503270
vn 0.286651 0.928210 0.237188
vn 0.286651 0.928210 -0.237188
vn 0.327643 0.925643 -0.189303
vn 0.327643 0.925643 0.189303
vn 0.327643 0.925643 -0.189303
vn 0.286651 0.928210 -0.237188
vn 0.016874 0.863964 -0.503270
vn -0.999996 0.003010 -0.000000
vn -0.999996 0.003010 -0.000000
vn -0.999996 0.003010 -0.000000
vn -0.999996 0.003010 -0.000000
vn 0.146236 0.293517 0.944703
vn 0.128429 0.154013 0.979687
vn 0.128300 0.153060 0.979853
vn 0.146236 0.293517 0.944703
vn 0.994007 0.109321 0.000000
vn 0.994007 0.109321 0.000000
vn 0.967720 0.252029 0.000000
vn 0.967720 0.252029 0.000000
vn 0.128429 0.154013 -0.979687
vn 0.146236 0.293517 -0.944703
vn 0.146236 0.293517 -0.944703
vn 0.128300 0.153060 -0.979853
vn -0.999979 -0.006426 0.000000
vn -0.999979 -0.006426 0.000000
vn -0.999990 -0.004586 0.000000
vn -0.999990 -0.004586 0.000000
vn 0.115585 0.102063 -0.988040
vn 0.116034 0.097705 -0.988428
vn 0.128429 0.154013 -0.979687
vn 0.128300 0.153060 -0.979853
vn 0.967720 0.252029 0.000000
vn 0.763096 0.646285 0.000000
vn 0.763096 0.646285 0.000000
vn 0.967720 0.252029 0.000000
vn 0.115585 0.102063 -0.988040
vn 0.105598 0.193500 -0.975401
vn 0.116034 0.097705 -0.988428
vn -0.999990 -0.004586 0.000000
vn -0.999990 -0.004586 0.000000
vn -1.000000 -0.000499 0.000000
vn -1.000000 -0.000499 0.000000
vn 0.115585 0.102063 0.988040
vn 0.116034 0.097705 0.988428
vn 0.105598 0.193500 0.975401
vn 0.763096 0.646285 0.000000
vn 0.479037 0.877795 0.000000
vn 0.479037 0.877795 0.000000
vn 0.763096 0.646285 0.000000
vn -0.885017 0.465558 -0.000000
vn -0.885017 0.465558 -0.000000
vn -0.885017 0.465558 -0.000000
vn -0.885017 0.465558 -0.000000
vn 0.115585 0.102063 0.988040
vn 0.128300 0.153060 0.979853
vn 0.128429 0.154013 0.979687
vn 0.116034 0.097705 0.988428
s off
g Factory_Refinery
usemtl initialShadingGroup
f 19/33/1 1/34/2 2/35/3 17/36/4
f 3/1/5 4/2/6 20/3/7 18/4/8
f 1/23/9 4/24/10 3/25/11 2/26/12
f 2/35/13 5/37/14 17/36/15
f 2/26/16 3/25/17 6/27/18 5/28/19
f 6/5/20 3/1/21 18/4/22
f 19/17/23 17/14/24 18/13/25 20/18/26
f 5/37/27 9/38/28 7/39/29 17/36/30
f 5/28/31 6/27/32 10/29/33 9/30/34
f 10/6/35 6/5/36 18/4/37 8/7/38
f 8/12/39 7/11/40 11/15/41 12/16/42
f 12/8/43 14/9/44 10/6/45 8/7/46
f 10/29/47 14/31/48 13/32/49 9/30/50
f 12/8/51 16/10/52 14/9/53
f 12/16/54 11/15/55 15/19/56 16/20/57
f 11/40/58 13/41/59 15/42/60
f 14/21/61 16/20/62 15/19/63 13/22/64
f 7/11/65 8/12/66 18/13/67 17/14/68
f 11/40/69 7/39/70 9/38/71 13/41/72
