# This file uses centimeters as units for non-parametric coordinates.

mtllib Blockout_AA_Turret_MKIII.mtl
g default
v -0.530259 0.645501 -0.492784
v 0.455310 0.645501 -0.492784
v -0.530259 1.277581 -0.492784
v 0.455310 1.277581 -0.492784
v -0.530259 1.277581 0.492784
v 0.455310 1.277581 0.492784
v -0.530259 0.645501 0.492784
v 0.455310 0.645501 0.492784
v 1.421392 0.045855 0.492784
v 1.421392 0.045855 -0.492784
v 1.421392 0.677934 0.492784
v 1.421392 0.677934 -0.492784
v -1.421392 0.039977 0.492784
v -1.421392 0.039977 -0.492784
v -1.421392 0.672056 -0.492784
v -1.421392 0.672056 0.492784
v -0.530259 0.057829 -1.628658
v 0.455310 0.057829 -1.628658
v 0.455310 0.689908 -1.628658
v -0.530259 0.689908 -1.628658
v -0.530259 0.781830 1.583326
v 0.455310 0.781830 1.583326
v 0.455310 0.149751 1.583326
v -0.530259 0.149751 1.583326
v -0.530259 1.277581 -0.492784
v 0.455310 1.277581 -0.492784
v 0.455310 1.277581 0.492784
v -0.530259 1.277581 0.492784
v -0.530259 1.902981 -0.492784
v 0.455310 1.902981 -0.492784
v 0.455310 1.902981 0.492784
v -0.530259 1.902981 0.492784
vt 0.375000 0.000000
vt 0.375000 0.250000
vt 0.625000 0.250000
vt 0.625000 0.000000
vt 0.375000 0.250000
vt 0.375000 0.500000
vt 0.625000 0.500000
vt 0.625000 0.250000
vt 0.375000 0.500000
vt 0.375000 0.750000
vt 0.625000 0.750000
vt 0.625000 0.500000
vt 0.375000 0.750000
vt 0.375000 1.000000
vt 0.625000 1.000000
vt 0.625000 0.750000
vt 0.625000 0.000000
vt 0.625000 0.250000
vt 0.875000 0.250000
vt 0.875000 0.000000
vt 0.125000 0.000000
vt 0.125000 0.250000
vt 0.375000 0.250000
vt 0.375000 0.000000
vt 0.625000 0.000000
vt 0.875000 0.000000
vt 0.875000 0.250000
vt 0.625000 0.250000
vt 0.125000 0.000000
vt 0.375000 0.000000
vt 0.375000 0.250000
vt 0.125000 0.250000
vt 0.375000 0.500000
vt 0.625000 0.500000
vt 0.375000 0.250000
vt 0.625000 0.250000
vt 0.625000 0.500000
vt 0.375000 0.500000
vn 0.000000 0.000000 -1.000000
vn 0.000000 0.000000 -1.000000
vn 0.000000 0.000000 -1.000000
vn 0.000000 0.000000 -1.000000
vn 0.000000 1.000000 0.000000
vn 0.000000 1.000000 0.000000
vn 0.000000 1.000000 0.000000
vn 0.000000 1.000000 0.000000
vn 0.000000 0.000000 1.000000
vn 0.000000 0.000000 1.000000
vn 0.000000 0.000000 1.000000
vn 0.000000 0.000000 1.000000
vn 0.000000 -0.972654 -0.232258
vn 0.000000 -0.963707 0.266962
vn 0.000000 -0.963707 0.266962
vn 0.000000 -0.972654 -0.232258
vn 1.000000 0.000000 0.000000
vn 1.000000 0.000000 0.000000
vn 1.000000 0.000000 0.000000
vn 1.000000 0.000000 0.000000
vn -1.000000 0.000000 0.000000
vn -1.000000 0.000000 0.000000
vn -1.000000 0.000000 0.000000
vn -1.000000 0.000000 0.000000
vn -0.527369 -0.849636 0.000000
vn -0.527369 -0.849636 0.000000
vn -0.527369 -0.849636 0.000000
vn -0.527369 -0.849636 0.000000
vn 0.000000 0.000000 1.000000
vn 0.000000 0.000000 1.000000
vn 0.000000 0.000000 1.000000
vn 0.000000 0.000000 1.000000
vn 0.527369 0.849636 0.000000
vn 0.527369 0.849636 0.000000
vn 0.527369 0.849636 0.000000
vn 0.527369 0.849636 0.000000
vn 0.000000 0.000000 -1.000000
vn 0.000000 0.000000 -1.000000
vn 0.000000 0.000000 -1.000000
vn 0.000000 0.000000 -1.000000
vn 0.562027 -0.827119 0.000000
vn 0.562027 -0.827119 0.000000
vn 0.562027 -0.827119 0.000000
vn 0.562027 -0.827119 0.000000
vn 0.000000 0.000000 -1.000000
vn 0.000000 0.000000 -1.000000
vn 0.000000 0.000000 -1.000000
vn 0.000000 0.000000 -1.000000
vn -0.562027 0.827119 0.000000
vn -0.562027 0.827119 0.000000
vn -0.562027 0.827119 0.000000
vn -0.562027 0.827119 0.000000
vn 0.000000 0.000000 1.000000
vn 0.000000 0.000000 1.000000
vn 0.000000 0.000000 1.000000
vn 0.000000 0.000000 1.000000
vn 0.000000 -0.888169 0.459516
vn 0.000000 -0.888169 0.459516
vn 1.000000 0.000000 0.000000
vn 1.000000 0.000000 0.000000
vn 1.000000 0.000000 0.000000
vn 1.000000 0.000000 0.000000
vn 0.000000 0.888169 -0.459516
vn 0.000000 0.888169 -0.459516
vn 0.000000 0.888169 -0.459516
vn 0.000000 0.888169 -0.459516
vn -1.000000 0.000000 0.000000
vn -1.000000 0.000000 0.000000
vn -1.000000 0.000000 0.000000
vn -1.000000 0.000000 0.000000
vn 0.000000 0.910351 0.413837
vn 0.000000 0.910351 0.413837
vn 0.000000 0.910351 0.413837
vn 0.000000 0.910351 0.413837
vn 1.000000 0.000000 0.000000
vn 1.000000 0.000000 0.000000
vn 1.000000 0.000000 0.000000
vn 1.000000 0.000000 0.000000
vn 0.000000 -0.910351 -0.413837
vn 0.000000 -0.910351 -0.413837
vn -1.000000 0.000000 0.000000
vn -1.000000 0.000000 0.000000
vn -1.000000 0.000000 0.000000
vn -1.000000 0.000000 0.000000
vn 0.000000 0.000000 0.000000
vn 0.000000 0.000000 0.000000
vn 0.000000 0.000000 0.000000
vn 0.000000 0.000000 0.000000
vn 0.000000 0.000000 0.000000
vn 0.000000 0.000000 0.000000
vn 0.000000 0.000000 0.000000
vn 0.000000 0.000000 0.000000
vn 0.000000 0.000000 0.000000
vn 0.000000 0.000000 0.000000
vn 0.000000 0.000000 0.000000
vn 0.000000 0.000000 0.000000
vn 0.000000 0.000000 0.000000
vn 0.000000 0.000000 0.000000
vn 0.000000 0.000000 0.000000
vn 0.000000 0.000000 0.000000
vn 0.000000 0.000000 -1.000000
vn 0.000000 0.000000 -1.000000
vn 0.000000 0.000000 -1.000000
vn 0.000000 0.000000 -1.000000
vn 1.000000 0.000000 0.000000
vn 1.000000 0.000000 0.000000
vn 1.000000 0.000000 0.000000
vn 1.000000 0.000000 0.000000
vn 0.000000 0.000000 1.000000
vn 0.000000 0.000000 1.000000
vn 0.000000 0.000000 1.000000
vn 0.000000 0.000000 1.000000
vn -1.000000 0.000000 0.000000
vn -1.000000 0.000000 0.000000
vn -1.000000 0.000000 0.000000
vn -1.000000 0.000000 0.000000
s off
g Turret_Platform
usemtl initialShadingGroup
f 17/1/1 20/2/2 19/3/3 18/4/4
f 29/5/5 32/6/6 31/7/7 30/8/8
f 21/9/9 24/10/10 23/11/11 22/12/12
s 1
f 7/13/13 1/14/14 2/15/15 8/16/16
s off
f 10/17/17 12/18/18 11/19/19 9/20/20
f 13/21/21 16/22/22 15/23/23 14/24/24
f 2/25/25 10/17/26 9/20/27 8/26/28
f 8/26/29 9/20/30 11/19/31 6/27/32
f 6/27/33 11/19/34 12/18/35 4/28/36
f 4/28/37 12/18/38 10/17/39 2/25/40
f 7/29/41 13/21/42 14/24/43 1/30/44
f 1/30/45 14/24/46 15/23/47 3/31/48
f 3/31/49 15/23/50 16/22/51 5/32/52
f 5/32/53 16/22/54 13/21/55 7/29/56
s 1
f 1/30/14 17/1/57 18/4/58 2/25/15
s off
f 2/25/59 18/4/60 19/3/61 4/28/62
f 4/28/63 19/3/64 20/2/65 3/31/66
f 3/31/67 20/2/68 17/1/69 1/30/70
f 5/33/71 21/9/72 22/12/73 6/34/74
f 6/34/75 22/12/76 23/11/77 8/16/78
s 1
f 8/16/16 23/11/79 24/10/80 7/13/13
s off
f 7/13/81 24/10/82 21/9/83 5/33/84
f 3/31/85 25/35/86 26/36/87 4/28/88
f 4/28/89 26/36/90 27/37/91 6/34/92
f 6/34/93 27/37/94 28/38/95 5/33/96
f 5/33/97 28/38/98 25/35/99 3/31/100
f 25/35/101 29/5/102 30/8/103 26/36/104
f 26/36/105 30/8/106 31/7/107 27/37/108
f 27/37/109 31/7/110 32/6/111 28/38/112
f 28/38/113 32/6/114 29/5/115 25/35/116
g default
v -0.938651 1.863346 -1.507514
v 0.863702 1.863346 -1.507514
v -0.938651 2.702262 -1.507514
v 0.863702 2.702262 -1.507514
v 0.322996 1.863346 -1.507514
v 0.322996 2.702262 -1.507514
v -0.433992 1.863346 -1.507514
v -0.433992 2.702262 -1.507514
v -0.938651 2.761267 1.359718
v -0.790855 2.613471 1.507514
v -0.433992 2.761267 1.365199
v -0.539468 2.612102 1.507514
v -0.790855 2.011142 1.507514
v -0.938651 1.863346 1.359718
v -0.539468 2.012512 1.507514
v -0.433992 1.863346 1.365199
v 0.863702 2.761267 1.359718
v 0.715905 2.613471 1.507514
v 0.715905 2.011142 1.507514
v 0.863702 1.863346 1.359718
v 0.322996 1.863346 1.365199
v 0.428472 2.012512 1.507514
v 0.322996 2.761267 1.365199
v 0.424029 2.618385 1.507514
v -0.602652 2.549262 2.326062
v -0.539469 2.612102 2.262879
v -0.790855 2.613471 2.262879
v -0.727671 2.549943 2.326062
v -0.602652 2.075352 2.326062
v -0.539469 2.012512 2.262879
v -0.727671 2.074671 2.326062
v -0.790855 2.011142 2.262879
v 0.491197 2.075397 2.326062
v 0.428473 2.012512 2.262879
v 0.715906 2.011142 2.262879
v 0.652722 2.074628 2.326062
v 0.487686 2.554121 2.326062
v 0.424029 2.618385 2.262879
v 0.652722 2.551342 2.326062
v 0.715906 2.613471 2.262879
v -0.602655 2.549262 3.513017
v -0.727674 2.549943 3.513017
v -0.602655 2.075352 3.513017
v -0.727674 2.074671 3.513017
v 0.491197 2.075397 3.513017
v 0.652722 2.074628 3.513017
v 0.487686 2.554121 3.513017
v 0.652722 2.551342 3.513017
v 0.322996 1.863346 -1.220242
v -0.433992 1.863346 -1.220242
v -0.938651 1.863346 -1.220791
v -0.938651 2.885434 -1.220791
v -0.433992 2.885434 -1.220242
v 0.322996 2.885434 -1.220242
v 0.863702 2.885434 -1.220791
v 0.863702 1.863346 -1.220791
v 0.322996 1.863346 -1.372518
v -0.433992 1.863346 -1.372518
v -0.938651 1.863346 -1.372775
v -0.938651 2.846975 -1.412215
v -0.433992 2.846975 -1.411957
v 0.322996 2.846975 -1.411957
v 0.863702 2.846975 -1.412215
v 0.863702 1.863346 -1.372775
v 0.863702 1.399114 -1.220791
v 0.463874 1.399114 -1.220243
v 0.463874 1.399114 1.365199
v 0.863702 1.399114 1.359718
v 0.863702 1.399114 -1.372775
v 0.463874 1.399114 -1.372518
v 0.463874 1.399114 -1.507514
v 0.863702 1.399114 -1.507514
v -0.575231 1.399114 1.365199
v -0.938651 1.399114 1.359718
v -0.575231 1.399114 -1.220242
v -0.938651 1.399114 -1.220791
v -0.575231 1.399114 -1.372518
v -0.938651 1.399114 -1.372775
v -0.575231 1.399114 -1.507514
v -0.938651 1.399114 -1.507514
vt 0.550000 0.250000
vt 0.625000 0.250000
vt 0.625000 0.000000
vt 0.550000 0.000000
vt 0.550000 0.976270
vt 0.549998 0.762696
vt 0.445004 0.762648
vt 0.445000 0.976265
vt 0.549998 0.488208
vt 0.445004 0.488207
vt 0.445000 0.250000
vt 0.445000 0.000000
vt 0.375000 0.000000
vt 0.375000 0.250000
vt 0.550000 0.273821
vt 0.445000 0.273821
vt 0.137255 0.250000
vt 0.137255 0.000000
vt 0.125000 0.041150
vt 0.125000 0.208850
vt 0.395500 0.541150
vt 0.430370 0.541531
vt 0.375000 0.487745
vt 0.430370 0.708469
vt 0.375000 0.762255
vt 0.395500 0.708850
vt 0.625000 0.487745
vt 0.564014 0.539781
vt 0.604500 0.541150
vt 0.604500 0.708850
vt 0.625000 0.762255
vt 0.564630 0.708469
vt 0.625000 0.273775
vt 0.625000 0.976225
vt 0.625000 0.762255
vt 0.549998 0.762696
vt 0.550000 0.976270
vt 0.648775 0.250000
vt 0.862745 0.250000
vt 0.862745 0.000000
vt 0.648775 0.000000
vt 0.351225 0.250000
vt 0.351225 0.000000
vt 0.375000 0.762255
vt 0.375000 0.976225
vt 0.445000 0.976265
vt 0.445004 0.762648
vt 0.375000 0.273775
vt 0.421606 0.559027
vt 0.421606 0.690973
vt 0.430370 0.708469
vt 0.430370 0.541531
vt 0.395500 0.541150
vt 0.404265 0.558837
vt 0.395500 0.708850
vt 0.404265 0.691163
vt 0.573331 0.690960
vt 0.572844 0.557674
vt 0.564014 0.539781
vt 0.564630 0.708469
vt 0.604500 0.708850
vt 0.595735 0.691175
vt 0.604500 0.541150
vt 0.595735 0.558447
vt 0.404265 0.558837
vt 0.404265 0.691163
vt 0.421606 0.690973
vt 0.421606 0.559027
vt 0.595735 0.691175
vt 0.595735 0.558447
vt 0.572844 0.557674
vt 0.573331 0.690960
vt 0.550000 0.988849
vt 0.445000 0.988846
vt 0.375000 0.988828
vt 0.445000 0.988846
vt 0.363828 0.250000
vt 0.363828 0.000000
vt 0.375000 0.261172
vt 0.445000 0.261194
vt 0.550000 0.261194
vt 0.625000 0.261172
vt 0.636172 0.250000
vt 0.636172 0.000000
vt 0.625000 0.988828
vt 0.550000 0.988849
vt 0.445000 1.000000
vt 0.550000 1.000000
vt 0.375000 1.000000
vt 0.445000 1.000000
vt 0.550000 1.000000
vt 0.625000 1.000000
vt 0.625000 0.976225
vt 0.375000 0.976225
vt 0.375000 0.988828
vt 0.625000 0.988828
vt 0.375000 1.000000
vt 0.625000 1.000000
vn 0.000000 0.000000 -1.000000
vn 0.000000 0.000000 -1.000000
vn 0.000000 0.000000 -1.000000
vn 0.000000 0.000000 -1.000000
vn 0.000000 -1.000000 0.000000
vn 0.000000 -1.000000 0.000000
vn 0.000000 -1.000000 0.000000
vn 0.000000 -1.000000 0.000000
vn 0.081388 0.000000 0.996682
vn -0.081811 -0.000242 0.996648
vn -0.083025 -0.000245 0.996547
vn 0.081388 0.000000 0.996683
vn 0.000000 0.000000 -1.000000
vn 0.000000 0.000000 -1.000000
vn 0.000000 0.000000 -1.000000
vn 0.000000 0.000000 -1.000000
vn -0.000114 0.998848 0.047988
vn 0.000111 0.998848 0.047989
vn 0.000100 0.999523 0.030868
vn -0.000102 0.999524 0.030867
vn -0.707106 0.000000 0.707107
vn -0.707106 0.000000 0.707107
vn -0.707106 0.000000 0.707107
vn -0.707106 0.000000 0.707107
vn -0.003923 0.698516 0.715584
vn -0.003923 0.698516 0.715584
vn -0.003923 0.698516 0.715584
vn -0.003923 0.698516 0.715584
vn 0.803399 0.000000 0.595440
vn 0.803399 0.000000 0.595440
vn -0.003923 -0.698515 0.715585
vn -0.003923 -0.698515 0.715585
vn -0.003923 -0.698515 0.715585
vn -0.003923 -0.698515 0.715585
vn 0.008830 0.705676 0.708480
vn 0.008830 0.705676 0.708480
vn 0.008830 0.705676 0.708480
vn 0.008830 0.705676 0.708480
vn 0.707106 0.000000 0.707107
vn 0.707106 0.000000 0.707107
vn 0.707106 0.000000 0.707107
vn 0.707106 0.000000 0.707107
vn 0.003581 -0.698541 0.715562
vn 0.003581 -0.698541 0.715562
vn 0.003581 -0.698541 0.715562
vn 0.003581 -0.698541 0.715562
vn -0.809375 -0.002391 0.587287
vn -0.809375 -0.002391 0.587287
vn 0.000268 0.998847 0.048016
vn 0.000239 0.999524 0.030856
vn 0.000000 -1.000000 0.000000
vn 0.000000 -1.000000 0.000000
vn 0.000000 -1.000000 0.000000
vn 0.000000 -1.000000 0.000000
vn 1.000000 -0.000000 0.000000
vn 1.000000 0.000000 0.000000
vn 1.000000 0.000000 0.000000
vn 1.000000 -0.000000 0.000000
vn -1.000000 0.000000 0.000000
vn -1.000000 0.000000 0.000000
vn -1.000000 0.000000 0.000000
vn -1.000000 0.000000 0.000000
vn 0.000000 -1.000000 0.000000
vn 0.000000 -1.000000 0.000000
vn 0.000000 -1.000000 0.000000
vn 0.000000 -1.000000 0.000000
vn -0.000256 0.999524 0.030854
vn -0.000287 0.998847 0.048016
vn 0.707105 0.000000 0.707108
vn 0.707105 0.000000 0.707108
vn 0.707105 0.000000 0.707108
vn 0.707105 0.000000 0.707108
vn 0.003852 0.707097 0.707106
vn 0.003852 0.707097 0.707106
vn 0.003852 0.707097 0.707106
vn 0.003852 0.707097 0.707106
vn -0.707105 0.000000 0.707109
vn -0.707105 0.000000 0.707109
vn -0.707105 0.000000 0.707109
vn -0.707105 0.000000 0.707109
vn 0.003853 -0.707095 0.707108
vn 0.003853 -0.707095 0.707108
vn 0.003853 -0.707095 0.707108
vn 0.003853 -0.707095 0.707108
vn -0.707086 -0.005186 0.707108
vn -0.707086 -0.005186 0.707108
vn -0.707086 -0.005186 0.707108
vn -0.707086 -0.005186 0.707108
vn -0.003368 -0.707098 0.707108
vn -0.003368 -0.707098 0.707108
vn -0.003368 -0.707098 0.707108
vn -0.003368 -0.707098 0.707108
vn 0.707106 0.000000 0.707108
vn 0.707106 0.000000 0.707108
vn 0.707106 0.000000 0.707108
vn 0.707106 0.000000 0.707108
vn 0.011905 0.707006 0.707107
vn 0.011905 0.707006 0.707107
vn 0.011905 0.707006 0.707107
vn 0.011905 0.707006 0.707107
vn 0.000001 0.000000 1.000000
vn 0.000001 0.000000 1.000000
vn 0.000001 0.000000 1.000000
vn 0.000001 0.000000 1.000000
vn 0.000002 0.000000 1.000000
vn 0.000002 0.000000 1.000000
vn 0.000002 0.000000 1.000000
vn 0.000002 0.000000 1.000000
vn 0.005448 0.999985 0.000000
vn 0.005448 0.999985 0.000000
vn 0.005448 0.999985 0.000000
vn 0.005448 0.999985 0.000000
vn 1.000000 0.000000 0.000000
vn 1.000000 0.000000 0.000000
vn 1.000000 0.000000 0.000000
vn 1.000000 0.000000 0.000000
vn 0.005448 -0.999985 0.000000
vn 0.005448 -0.999985 0.000000
vn 0.005448 -0.999985 0.000000
vn 0.005448 -0.999985 0.000000
vn -1.000000 0.000000 -0.000000
vn -1.000000 0.000000 -0.000000
vn -1.000000 0.000000 -0.000000
vn -1.000000 0.000000 -0.000000
vn -0.004764 -0.999989 0.000000
vn -0.004764 -0.999989 0.000000
vn -0.004764 -0.999989 0.000000
vn -0.004764 -0.999989 0.000000
vn -0.999973 -0.007333 0.000000
vn -0.999973 -0.007333 0.000000
vn -0.999973 -0.007333 0.000000
vn -0.999973 -0.007333 0.000000
vn 0.016834 0.999858 0.000000
vn 0.016834 0.999858 0.000000
vn 0.016834 0.999858 0.000000
vn 0.016834 0.999858 0.000000
vn 1.000000 0.000000 -0.000000
vn 1.000000 0.000000 -0.000000
vn 1.000000 0.000000 -0.000000
vn 1.000000 0.000000 -0.000000
vn 0.005448 0.999985 0.000000
vn 0.005448 0.999985 0.000000
vn 0.005448 0.999985 0.000000
vn 0.005448 0.999985 0.000000
vn 1.000000 0.000000 0.000002
vn 1.000000 0.000000 0.000002
vn 1.000000 0.000000 0.000002
vn 1.000000 0.000000 0.000002
vn 0.005448 -0.999985 0.000000
vn 0.005448 -0.999985 0.000000
vn 0.005448 -0.999985 0.000000
vn 0.005448 -0.999985 0.000000
vn -1.000000 0.000000 -0.000002
vn -1.000000 0.000000 -0.000002
vn -1.000000 0.000000 -0.000002
vn -1.000000 0.000000 -0.000002
vn -0.004765 -0.999989 0.000000
vn -0.004765 -0.999989 0.000000
vn -0.004765 -0.999989 0.000000
vn -0.004765 -0.999989 0.000000
vn -0.999973 -0.007334 0.000000
vn -0.999973 -0.007334 0.000000
vn -0.999973 -0.007334 0.000000
vn -0.999973 -0.007334 0.000000
vn 0.016835 0.999858 0.000000
vn 0.016835 0.999858 0.000000
vn 0.016835 0.999858 0.000000
vn 0.016835 0.999858 0.000000
vn 1.000000 0.000000 0.000000
vn 1.000000 0.000000 0.000000
vn 1.000000 0.000000 0.000000
vn 1.000000 0.000000 0.000000
vn 0.000000 -1.000000 0.000000
vn 0.000000 -1.000000 0.000000
vn 0.000000 -1.000000 0.000000
vn 0.000000 -1.000000 0.000000
vn -1.000000 0.000000 0.000000
vn -1.000000 0.000000 0.000000
vn 0.000199 0.842890 -0.538086
vn 0.000079 0.843107 -0.537745
vn -0.000077 0.843103 -0.537752
vn -0.000185 0.842894 -0.538080
vn 1.000000 -0.000000 0.000000
vn 1.000000 -0.000000 0.000000
vn 0.000000 -1.000000 0.000000
vn 0.000000 -1.000000 0.000000
vn 0.000000 -1.000000 0.000000
vn 0.000000 -1.000000 0.000000
vn 0.000000 -1.000000 0.000000
vn 0.000000 -1.000000 0.000000
vn -1.000000 0.000000 0.000000
vn -1.000000 0.000000 0.000000
vn 0.000213 0.550507 -0.834830
vn 0.000085 0.550818 -0.834625
vn -0.000083 0.550810 -0.834631
vn -0.000199 0.550508 -0.834830
vn 1.000000 0.000000 0.000000
vn 1.000000 0.000000 0.000000
vn 0.000000 -1.000000 0.000000
vn 0.000000 -1.000000 0.000000
vn -0.956909 -0.290389 0.000000
vn -0.956909 -0.290388 -0.000000
vn -0.956909 -0.290389 0.000000
vn -0.956909 -0.290389 0.000000
vn 0.011656 0.001769 0.999931
vn 0.011656 0.001769 0.999931
vn 0.011656 0.001769 0.999931
vn 0.011656 0.001769 0.999931
vn 1.000000 0.000000 0.000000
vn 1.000000 0.000000 0.000000
vn -0.956909 -0.290388 -0.000000
vn -0.956909 -0.290388 -0.000000
vn 1.000000 0.000000 0.000000
vn -0.956909 -0.290388 0.000000
vn -0.956909 -0.290388 0.000000
vn 1.000000 0.000000 0.000000
vn 0.000000 0.000000 -1.000000
vn 0.000000 0.000000 -1.000000
vn -0.012629 0.001921 0.999918
vn -0.012629 0.001921 0.999918
vn -0.012629 0.001921 0.999918
vn -0.012629 0.001921 0.999918
vn 0.956702 -0.291069 0.000000
vn 0.956702 -0.291069 0.000000
vn 0.956702 -0.291069 0.000000
vn 0.956702 -0.291069 0.000000
vn -1.000000 0.000000 0.000000
vn -1.000000 0.000000 0.000000
vn 0.956702 -0.291069 0.000000
vn 0.956702 -0.291069 0.000000
vn -1.000000 0.000000 0.000000
vn 0.956702 -0.291069 0.000000
vn 0.956702 -0.291069 0.000000
vn 0.000000 0.000000 -1.000000
vn 0.000000 0.000000 -1.000000
vn -1.000000 0.000000 0.000000
s 1
g Turret_Weapon
usemtl initialShadingGroup
f 38/39/117 36/40/118 34/41/119 37/42/120
s 2
f 81/43/121 53/44/122 48/45/123 82/46/124
s 3
f 48/45/125 53/44/126 55/47/127 43/48/128
s 1
f 40/49/129 38/39/117 37/42/120 39/50/130
f 33/51/131 35/52/132 40/49/129 39/50/130
s 4
f 43/48/133 55/47/134 86/53/135 85/54/136
s off
f 41/55/137 46/56/138 45/57/139 42/58/140
f 42/59/141 44/60/142 43/48/143 41/61/144
s 3
f 44/60/145 47/62/146 48/45/125 43/48/128
s off
f 46/63/147 48/45/148 47/62/149 45/64/150
f 49/65/151 55/47/152 56/66/153 50/67/154
f 50/67/155 51/68/156 52/69/157 49/65/158
f 51/68/159 54/70/160 53/44/161 52/69/162
s 3
f 54/70/163 56/66/164 55/47/127 53/44/126
s 4
f 49/65/165 87/71/166 86/53/135 55/47/134
s 5
f 97/72/167 100/73/168 99/74/169 98/75/170
s 6
f 87/76/171 49/77/172 52/78/173 88/79/174
s 7
f 46/56/175 41/55/176 84/80/177 83/81/178
s 8
f 106/82/179 108/83/180 107/84/181 105/85/182
s 4
f 84/86/183 41/61/184 43/48/133 85/54/136
s off
f 57/87/185 61/88/186 62/89/187 58/90/188
f 58/90/189 59/91/190 60/92/191 57/87/192
f 59/91/193 64/93/194 63/94/195 60/92/196
f 61/88/197 63/94/198 64/93/199 62/89/200
f 65/95/201 69/96/202 70/97/203 66/98/204
f 66/98/205 67/99/206 68/100/207 65/95/208
f 67/99/209 72/101/210 71/102/211 68/100/212
f 69/96/213 71/102/214 72/101/215 70/97/216
f 74/103/217 76/104/218 75/105/219 73/106/220
f 78/107/221 80/108/222 79/109/223 77/110/224
f 42/59/225 59/91/226 58/90/227 44/60/228
f 44/60/229 58/90/230 62/89/231 47/62/232
f 47/62/233 62/89/234 64/93/235 45/64/236
f 45/64/237 64/93/238 59/91/239 42/59/240
f 51/68/241 67/99/242 66/98/243 54/70/244
f 54/70/245 66/98/246 70/97/247 56/66/248
f 56/66/249 70/97/250 72/101/251 50/67/252
f 50/67/253 72/101/254 67/99/255 51/68/256
f 60/92/257 74/103/258 73/106/259 57/87/260
f 57/87/261 73/106/262 75/105/263 61/88/264
f 61/88/265 75/105/266 76/104/267 63/94/268
f 63/94/269 76/104/270 74/103/271 60/92/272
f 68/100/273 78/107/274 77/110/275 65/95/276
f 65/95/277 77/110/278 79/109/279 69/96/280
f 69/96/281 79/109/282 80/108/283 71/102/284
f 71/102/285 80/108/286 78/107/287 68/100/288
s 2
f 89/111/289 81/43/121 82/46/124 90/112/290
s 8
f 108/83/180 110/113/291 109/114/292 107/84/181
s 7
f 84/80/177 92/115/293 91/116/294 83/81/178
s 4
f 92/117/295 84/86/183 85/54/136 93/118/296
f 86/53/135 94/119/297 93/118/296 85/54/136
f 87/71/166 95/120/298 94/119/297 86/53/135
s 6
f 95/121/299 87/76/171 88/79/174 96/122/300
s 5
f 101/123/301 97/72/167 98/75/170 102/124/302
s 2
f 39/125/303 37/126/304 89/111/289 90/112/290
s 8
f 110/113/291 112/127/305 111/128/306 109/114/292
s 7
f 92/115/293 35/52/307 33/51/308 91/116/294
s 4
f 35/52/309 92/117/295 93/118/296 40/49/310
f 94/119/297 38/39/311 40/49/310 93/118/296
f 95/120/298 36/40/312 38/39/311 94/119/297
s 6
f 34/41/313 36/40/314 95/121/299 96/122/300
s 5
f 103/129/315 104/130/316 101/123/301 102/124/302
s 9
f 81/43/317 98/75/318 99/74/319 53/44/320
s off
f 53/44/321 99/74/322 100/73/323 52/69/324
s 6
f 52/69/173 100/73/325 97/72/326 88/131/174
s 9
f 89/63/327 102/82/328 98/85/318 81/45/317
s 6
f 88/45/174 97/85/326 101/84/329 96/46/300
s 9
f 37/132/330 103/83/331 102/82/328 89/63/327
s 6
f 96/46/300 101/84/329 104/114/332 34/112/313
s 1
f 34/133/119 104/113/333 103/83/334 37/132/120
s off
f 46/111/335 106/124/336 105/75/337 48/43/338
s 10
f 48/131/339 105/72/340 107/123/341 82/134/342
s 7
f 83/112/178 108/114/343 106/128/344 46/125/175
s 10
f 82/125/342 107/128/341 109/127/345 90/135/346
s 7
f 91/135/294 110/127/347 108/113/343 83/133/178
s 10
f 90/126/346 109/129/345 111/124/348 39/111/349
s 1
f 39/134/130 111/123/350 112/130/351 33/136/131
s 7
f 33/136/308 112/130/352 110/129/347 91/126/294
