# This file uses centimeters as units for non-parametric coordinates.

mtllib Blockout_Railgun_MKIII.mtl
g default
v 0.475750 0.708722 -0.532225
v -0.588897 0.703364 -0.532225
v 0.472313 1.391516 -0.532435
v -0.592333 1.386159 -0.532435
v 0.472312 1.391844 0.532225
v -0.592335 1.386486 0.532225
v 0.475748 0.709049 0.532435
v -0.588899 0.703691 0.532435
v -1.629236 0.050679 0.532634
v -1.629234 0.050352 -0.532026
v -1.632672 0.733473 0.532425
v -1.632670 0.733146 -0.532236
v 1.441674 0.059784 0.532636
v 1.441676 0.059457 -0.532025
v 1.438240 0.742252 -0.532234
v 1.438238 0.742579 0.532427
v 0.478946 0.073520 -1.759057
v -0.585701 0.068162 -1.759057
v -0.589137 0.750956 -1.759267
v 0.475510 0.756314 -1.759267
v 0.475005 0.856678 1.710448
v -0.589642 0.851320 1.710448
v -0.586206 0.168526 1.710657
v 0.478441 0.173884 1.710657
v 0.468914 2.067096 -0.532643
v -0.595734 2.061738 -0.532643
v -0.595735 2.062066 0.532018
v 0.468912 2.067424 0.532018
vt 0.375000 0.000000
vt 0.625000 0.000000
vt 0.625000 0.250000
vt 0.375000 0.250000
vt 0.375000 0.250000
vt 0.625000 0.250000
vt 0.625000 0.500000
vt 0.375000 0.500000
vt 0.375000 0.500000
vt 0.625000 0.500000
vt 0.625000 0.750000
vt 0.375000 0.750000
vt 0.375000 0.750000
vt 0.625000 0.750000
vt 0.625000 1.000000
vt 0.375000 1.000000
vt 0.625000 0.000000
vt 0.875000 0.000000
vt 0.875000 0.250000
vt 0.625000 0.250000
vt 0.125000 0.000000
vt 0.375000 0.000000
vt 0.375000 0.250000
vt 0.125000 0.250000
vt 0.625000 0.000000
vt 0.875000 0.000000
vt 0.875000 0.250000
vt 0.625000 0.250000
vt 0.125000 0.000000
vt 0.375000 0.000000
vt 0.375000 0.000000
vt 0.437500 0.250000
vt 0.125000 0.250000
vt 0.125000 0.000000
vt 0.375000 0.428571
vt 0.541667 0.500000
vt 0.625000 0.500000
vt 0.375000 0.500000
vt 0.375000 0.250000
vt 0.625000 0.333333
vt 0.562500 0.500000
vn 0.000001 -0.000308 -1.000000
vn 0.000001 -0.000308 -1.000000
vn 0.000001 -0.000308 -1.000000
vn 0.000001 -0.000308 -1.000000
vn -0.005033 0.999987 -0.000307
vn -0.005033 0.999987 -0.000307
vn -0.005033 0.999987 -0.000307
vn -0.005033 0.999987 -0.000307
vn -0.000002 0.000307 1.000000
vn -0.000002 0.000307 1.000000
vn -0.000002 0.000307 1.000000
vn -0.000002 0.000307 1.000000
vn 0.005033 -0.999987 0.000307
vn 0.005033 -0.999987 0.000307
vn 0.005033 -0.999987 0.000307
vn 0.005033 -0.999987 0.000307
vn -0.999987 -0.005032 0.000000
vn -0.999987 -0.005032 0.000000
vn -0.999987 -0.005032 0.000000
vn -0.999987 -0.005032 0.000000
vn 0.999987 0.005033 0.000000
vn 0.999987 0.005033 0.000000
vn 0.999987 0.005033 0.000000
vn 0.999987 0.005033 0.000000
vn 0.531638 -0.846972 0.000261
vn 0.531638 -0.846972 0.000261
vn 0.531638 -0.846972 0.000261
vn 0.531638 -0.846972 0.000261
vn -0.000002 0.000307 1.000000
vn -0.000002 0.000307 1.000000
vn -0.000002 0.000307 1.000000
vn -0.000002 0.000307 1.000000
vn -0.531638 0.846972 -0.000261
vn -0.531638 0.846972 -0.000261
vn -0.531638 0.846972 -0.000261
vn -0.531638 0.846972 -0.000261
vn 0.000002 -0.000307 -1.000000
vn 0.000002 -0.000307 -1.000000
vn 0.000002 -0.000307 -1.000000
vn 0.000002 -0.000307 -1.000000
vn -0.557857 -0.829937 0.000254
vn -0.557857 -0.829937 0.000254
vn -0.557857 -0.829937 0.000254
vn -0.557857 -0.829937 0.000254
vn 0.000001 -0.000307 -1.000000
vn 0.000001 -0.000307 -1.000000
vn 0.000001 -0.000307 -1.000000
vn 0.000001 -0.000307 -1.000000
vn 0.557857 0.829937 -0.000254
vn 0.557857 0.829937 -0.000254
vn 0.557857 0.829937 -0.000254
vn 0.557857 0.829937 -0.000254
vn -0.000001 0.000307 1.000000
vn -0.000001 0.000307 1.000000
vn -0.000001 0.000307 1.000000
vn -0.000001 0.000307 1.000000
vn 0.004469 -0.888017 0.459789
vn 0.004469 -0.888017 0.459789
vn 0.004469 -0.888017 0.459789
vn 0.004469 -0.888017 0.459789
vn -0.999987 -0.005033 0.000000
vn -0.999987 -0.005033 0.000000
vn -0.999987 -0.005033 0.000000
vn -0.999987 -0.005033 0.000000
vn -0.004469 0.888017 -0.459789
vn -0.004469 0.888017 -0.459789
vn -0.004469 0.888017 -0.459789
vn -0.004469 0.888017 -0.459789
vn 0.999987 0.005033 0.000000
vn 0.999987 0.005033 0.000000
vn 0.999987 0.005033 0.000000
vn 0.999987 0.005033 0.000000
vn -0.004582 0.910467 0.413557
vn -0.004582 0.910467 0.413557
vn -0.004582 0.910467 0.413557
vn -0.004582 0.910467 0.413557
vn -0.999987 -0.005033 0.000000
vn -0.999987 -0.005033 0.000000
vn -0.999987 -0.005033 0.000000
vn -0.999987 -0.005033 0.000000
vn 0.004582 -0.910467 -0.413557
vn 0.004582 -0.910467 -0.413557
vn 0.004582 -0.910467 -0.413557
vn 0.004582 -0.910467 -0.413557
vn 0.999987 0.005033 0.000000
vn 0.999987 0.005033 0.000000
vn 0.999987 0.005033 0.000000
vn 0.999987 0.005033 0.000000
vn 0.000002 -0.000307 -1.000000
vn 0.000002 -0.000307 -1.000000
vn 0.000002 -0.000307 -1.000000
vn 0.000002 -0.000307 -1.000000
vn -0.999987 -0.005033 0.000000
vn -0.999987 -0.005033 0.000000
vn -0.999987 -0.005033 0.000000
vn -0.999987 -0.005033 0.000000
vn -0.000002 0.000307 1.000000
vn -0.000002 0.000307 1.000000
vn -0.000002 0.000307 1.000000
vn -0.000002 0.000307 1.000000
vn 0.999987 0.005032 0.000000
vn 0.999987 0.005032 0.000000
vn 0.999987 0.005032 0.000000
vn 0.999987 0.005032 0.000000
s off
g Turret_Platform
usemtl initialShadingGroup
f 17/1/1 18/2/2 19/3/3 20/4/4
f 25/5/5 26/6/6 27/7/7 28/8/8
f 21/9/9 22/10/10 23/11/11 24/12/12
f 7/13/13 8/14/14 2/15/15 1/16/16
f 10/17/17 9/18/18 11/19/19 12/20/20
f 13/21/21 14/22/22 15/23/23 16/24/24
f 2/25/25 8/26/26 9/18/27 10/17/28
f 8/26/29 6/27/30 11/19/31 9/18/32
f 6/27/33 4/28/34 12/20/35 11/19/36
f 4/28/37 2/25/38 10/17/39 12/20/40
f 7/29/41 1/30/42 14/22/43 13/21/44
f 1/31/45 3/32/46 15/23/47 14/22/48
f 3/32/49 5/33/50 16/24/51 15/23/52
f 5/33/53 7/34/54 13/21/55 16/24/56
f 1/31/57 2/25/58 18/2/59 17/1/60
f 2/25/61 4/28/62 19/3/63 18/2/64
f 4/28/65 3/32/66 20/4/67 19/3/68
f 3/32/69 1/31/70 17/1/71 20/4/72
f 5/35/73 6/36/74 22/10/75 21/9/76
f 6/37/77 8/14/78 23/11/79 22/10/80
f 8/14/81 7/13/82 24/12/83 23/11/84
f 7/13/85 5/38/86 21/9/87 24/12/88
f 3/39/89 4/40/90 26/6/91 25/5/92
f 4/40/93 6/41/94 27/7/95 26/6/96
f 6/41/97 5/35/98 28/8/99 27/7/100
f 5/35/101 3/39/102 25/5/103 28/8/104
g default
v 0.124714 2.635046 0.791950
v 0.096267 2.690876 0.791950
v 0.051960 2.735183 0.791950
v -0.003870 2.763630 0.791950
v -0.065758 2.773432 0.791950
v -0.127646 2.763630 0.791950
v -0.183476 2.735183 0.791950
v -0.227783 2.690876 0.791950
v -0.256229 2.635046 0.791950
v -0.266031 2.573158 0.791950
v -0.256229 2.511270 0.791950
v -0.227783 2.455440 0.791950
v -0.183476 2.411134 0.791950
v -0.127646 2.382687 0.791950
v -0.065758 2.372885 0.791950
v -0.003870 2.382687 0.791950
v 0.051960 2.411134 0.791950
v 0.096267 2.455440 0.791950
v 0.124714 2.511270 0.791950
v 0.134516 2.573158 0.791950
v 0.124714 2.635046 5.611620
v 0.096267 2.690876 5.611620
v 0.051960 2.735183 5.611620
v -0.003870 2.763630 5.611620
v -0.065758 2.773432 5.611620
v -0.127646 2.763630 5.611620
v -0.183476 2.735183 5.611620
v -0.227783 2.690876 5.611620
v -0.256229 2.635046 5.611620
v -0.266031 2.573158 5.611620
v -0.256229 2.511270 5.611620
v -0.227783 2.455440 5.611620
v -0.183476 2.411134 5.611620
v -0.127646 2.382687 5.611620
v -0.065758 2.372885 5.611620
v -0.003870 2.382687 5.611620
v 0.051960 2.411134 5.611620
v 0.096267 2.455440 5.611620
v 0.124714 2.511270 5.611620
v 0.134516 2.573158 5.611620
v -0.065758 2.573158 0.791950
v -0.065758 2.573158 5.611620
v -0.669703 2.061738 1.093160
v 0.553117 2.061738 1.093160
v -0.669703 3.020864 1.093160
v 0.553117 3.020864 1.093160
v -0.827164 3.020864 -2.691626
v 0.710579 3.020864 -2.691626
v -0.827164 2.061738 -2.691626
v 0.710579 2.061738 -2.691626
v -0.841511 3.020864 0.837076
v 0.724925 3.020864 0.837076
v 0.724925 2.061738 0.837076
v -0.841511 2.061738 0.837076
v -1.213705 2.061738 0.029326
v 1.097119 2.061738 0.029326
v 1.097119 3.311326 0.029326
v -1.213705 3.311326 0.029326
v -1.213705 2.061738 -1.431994
v 1.097120 2.061738 -1.431994
v 1.097120 3.322181 -1.431994
v -1.213705 3.322181 -1.431994
v -0.302857 3.020864 1.093160
v -0.302857 2.061738 1.093160
v 0.161084 3.020864 1.093160
v 0.161084 2.061738 1.093160
v 0.161084 3.020864 5.352697
v 0.161084 2.061738 5.352697
v 0.553117 2.061738 5.352697
v 0.553117 3.020864 5.352697
v -0.669703 2.061738 5.352697
v -0.302857 2.061738 5.352697
v -0.302857 3.020864 5.352697
v -0.669703 3.020864 5.352697
vt 0.375000 0.312500
vt 0.387500 0.312500
vt 0.387500 0.688440
vt 0.375000 0.688440
vt 0.400000 0.312500
vt 0.400000 0.688440
vt 0.412500 0.312500
vt 0.412500 0.688440
vt 0.425000 0.312500
vt 0.425000 0.688440
vt 0.437500 0.312500
vt 0.437500 0.688440
vt 0.450000 0.312500
vt 0.450000 0.688440
vt 0.462500 0.312500
vt 0.462500 0.688440
vt 0.475000 0.312500
vt 0.475000 0.688440
vt 0.487500 0.312500
vt 0.487500 0.688440
vt 0.500000 0.312500
vt 0.500000 0.688440
vt 0.512500 0.312500
vt 0.512500 0.688440
vt 0.525000 0.312500
vt 0.525000 0.688440
vt 0.537500 0.312500
vt 0.537500 0.688440
vt 0.550000 0.312500
vt 0.550000 0.688440
vt 0.562500 0.312500
vt 0.562500 0.688440
vt 0.575000 0.312500
vt 0.575000 0.688440
vt 0.587500 0.312500
vt 0.587500 0.688440
vt 0.600000 0.312500
vt 0.600000 0.688440
vt 0.612500 0.312500
vt 0.612500 0.688440
vt 0.625000 0.312500
vt 0.625000 0.688440
vt 0.626409 0.064408
vt 0.648603 0.107966
vt 0.500000 0.150000
vt 0.591842 0.029841
vt 0.548284 0.007647
vt 0.500000 -0.000000
vt 0.451716 0.007647
vt 0.408159 0.029841
vt 0.373591 0.064409
vt 0.351397 0.107966
vt 0.343750 0.156250
vt 0.351397 0.204534
vt 0.373591 0.248091
vt 0.408159 0.282659
vt 0.451716 0.304853
vt 0.500000 0.312500
vt 0.548284 0.304853
vt 0.591841 0.282659
vt 0.626409 0.248091
vt 0.648603 0.204534
vt 0.656250 0.156250
vt 0.648603 0.892034
vt 0.626409 0.935591
vt 0.500000 0.837500
vt 0.591841 0.970159
vt 0.548284 0.992353
vt 0.500000 1.000000
vt 0.451716 0.992353
vt 0.408159 0.970159
vt 0.373591 0.935591
vt 0.351397 0.892034
vt 0.343750 0.843750
vt 0.351397 0.795466
vt 0.373591 0.751909
vt 0.408159 0.717341
vt 0.451716 0.695147
vt 0.500000 0.687500
vt 0.548284 0.695147
vt 0.591842 0.717341
vt 0.626409 0.751908
vt 0.648603 0.795466
vt 0.656250 0.843750
vt 0.555000 0.250000
vt 0.555000 0.000000
vt 0.625000 0.000000
vt 0.625000 0.250000
vt 0.375000 0.400000
vt 0.625000 0.400000
vt 0.625000 0.427898
vt 0.375000 0.427898
vt 0.375000 0.500000
vt 0.625000 0.500000
vt 0.625000 0.750000
vt 0.375000 0.750000
vt 0.375000 0.822102
vt 0.625000 0.822102
vt 0.625000 0.850000
vt 0.375000 0.850000
vt 0.775000 0.250000
vt 0.775000 0.000000
vt 0.802898 0.000000
vt 0.802898 0.250000
vt 0.197102 0.250000
vt 0.197102 0.000000
vt 0.225000 0.000000
vt 0.225000 0.250000
vt 0.375000 0.250000
vt 0.450000 0.250000
vt 0.555000 0.250000
vt 0.625000 0.250000
vt 0.625000 0.000000
vt 0.625000 1.000000
vt 0.555000 1.000000
vt 0.450000 1.000000
vt 0.375000 1.000000
vt 0.375000 0.000000
vt 0.375000 0.771631
vt 0.625000 0.771631
vt 0.853369 0.000000
vt 0.853369 0.250000
vt 0.625000 0.478369
vt 0.375000 0.478369
vt 0.146631 0.250000
vt 0.146631 0.000000
vt 0.875000 0.000000
vt 0.875000 0.250000
vt 0.125000 0.000000
vt 0.125000 0.250000
vt 0.375000 0.000000
vt 0.450000 0.000000
vt 0.450000 0.250000
vt 0.375000 0.250000
vt 0.450000 0.000000
vt 0.555000 0.000000
vn 0.951057 0.309016 0.000000
vn 0.809017 0.587785 0.000000
vn 0.809017 0.587785 0.000000
vn 0.951057 0.309016 0.000000
vn 0.809017 0.587785 0.000000
vn 0.587785 0.809017 0.000000
vn 0.587785 0.809017 0.000000
vn 0.809017 0.587785 0.000000
vn 0.587785 0.809017 0.000000
vn 0.309017 0.951057 0.000000
vn 0.309017 0.951057 0.000000
vn 0.587785 0.809017 0.000000
vn 0.309017 0.951057 0.000000
vn 0.000000 1.000000 0.000000
vn 0.000000 1.000000 0.000000
vn 0.309017 0.951057 0.000000
vn 0.000000 1.000000 0.000000
vn -0.309017 0.951057 0.000000
vn -0.309017 0.951057 0.000000
vn 0.000000 1.000000 0.000000
vn -0.309017 0.951057 0.000000
vn -0.587785 0.809017 0.000000
vn -0.587785 0.809017 0.000000
vn -0.309017 0.951057 0.000000
vn -0.587785 0.809017 0.000000
vn -0.809017 0.587785 0.000000
vn -0.809017 0.587785 0.000000
vn -0.587785 0.809017 0.000000
vn -0.809017 0.587785 0.000000
vn -0.951057 0.309017 0.000000
vn -0.951057 0.309017 0.000000
vn -0.809017 0.587785 0.000000
vn -0.951057 0.309017 0.000000
vn -1.000000 0.000000 0.000000
vn -1.000000 0.000000 0.000000
vn -0.951057 0.309017 0.000000
vn -1.000000 0.000000 0.000000
vn -0.951057 -0.309017 0.000000
vn -0.951057 -0.309017 0.000000
vn -1.000000 0.000000 0.000000
vn -0.951057 -0.309017 0.000000
vn -0.809017 -0.587785 0.000000
vn -0.809017 -0.587785 0.000000
vn -0.951057 -0.309017 0.000000
vn -0.809017 -0.587785 0.000000
vn -0.587785 -0.809017 0.000000
vn -0.587785 -0.809017 0.000000
vn -0.809017 -0.587785 0.000000
vn -0.587785 -0.809017 0.000000
vn -0.309017 -0.951057 0.000000
vn -0.309017 -0.951057 0.000000
vn -0.587785 -0.809017 0.000000
vn -0.309017 -0.951057 0.000000
vn 0.000000 -1.000000 0.000000
vn 0.000000 -1.000000 0.000000
vn -0.309017 -0.951057 0.000000
vn 0.000000 -1.000000 0.000000
vn 0.309017 -0.951057 0.000000
vn 0.309017 -0.951057 0.000000
vn 0.000000 -1.000000 0.000000
vn 0.309017 -0.951057 0.000000
vn 0.587785 -0.809017 0.000000
vn 0.587785 -0.809017 0.000000
vn 0.309017 -0.951057 0.000000
vn 0.587785 -0.809017 0.000000
vn 0.809017 -0.587785 0.000000
vn 0.809017 -0.587785 0.000000
vn 0.587785 -0.809017 0.000000
vn 0.809017 -0.587785 0.000000
vn 0.951057 -0.309017 0.000000
vn 0.951057 -0.309017 0.000000
vn 0.809017 -0.587785 0.000000
vn 0.951057 -0.309017 0.000000
vn 1.000000 -0.000001 0.000000
vn 1.000000 -0.000001 0.000000
vn 0.951057 -0.309017 0.000000
vn 1.000000 -0.000001 0.000000
vn 0.951057 0.309016 0.000000
vn 0.951057 0.309016 0.000000
vn 1.000000 -0.000001 0.000000
vn 0.000000 0.000000 -1.000000
vn 0.000000 0.000000 -1.000000
vn 0.000000 0.000000 -1.000000
vn 0.000001 0.000000 -1.000000
vn 0.000000 0.000000 -1.000000
vn 0.000000 0.000000 -1.000000
vn -0.000001 0.000000 -1.000000
vn 0.000001 0.000000 -1.000000
vn 0.000000 0.000000 -1.000000
vn -0.000001 0.000000 -1.000000
vn -0.000001 0.000000 -1.000000
vn 0.000000 0.000000 -1.000000
vn 0.000000 0.000000 -1.000000
vn -0.000001 0.000000 -1.000000
vn 0.000000 0.000000 -1.000000
vn -0.000001 0.000000 -1.000000
vn 0.000000 0.000000 -1.000000
vn 0.000000 0.000000 -1.000000
vn 0.000000 0.000000 -1.000000
vn -0.000001 0.000000 -1.000000
vn 0.000000 0.000000 -1.000000
vn 0.000000 0.000000 -1.000000
vn 0.000000 0.000000 -1.000000
vn 0.000000 0.000000 -1.000000
vn 0.000000 0.000000 -1.000000
vn 0.000000 0.000000 -1.000000
vn 0.000000 0.000000 -1.000000
vn 0.000000 0.000000 -1.000000
vn 0.000000 0.000000 -1.000000
vn 0.000000 0.000000 -1.000000
vn 0.000000 0.000000 -1.000000
vn 0.000000 0.000000 -1.000000
vn 0.000000 0.000000 -1.000000
vn -0.000001 0.000000 -1.000000
vn 0.000000 0.000000 -1.000000
vn 0.000000 0.000000 -1.000000
vn 0.000001 0.000000 -1.000000
vn -0.000001 0.000000 -1.000000
vn 0.000000 0.000000 -1.000000
vn 0.000001 0.000000 -1.000000
vn 0.000001 0.000000 -1.000000
vn 0.000000 0.000000 -1.000000
vn 0.000000 0.000000 -1.000000
vn 0.000001 0.000000 -1.000000
vn 0.000000 0.000000 -1.000000
vn 0.000001 0.000000 -1.000000
vn 0.000000 0.000000 -1.000000
vn 0.000000 0.000000 -1.000000
vn 0.000000 0.000000 -1.000000
vn 0.000001 0.000000 -1.000000
vn 0.000000 0.000000 -1.000000
vn 0.000000 0.000000 -1.000000
vn 0.000000 0.000000 -1.000000
vn 0.000000 0.000000 -1.000000
vn 0.000000 0.000000 -1.000000
vn 0.000000 0.000000 -1.000000
vn 0.000000 0.000000 -1.000000
vn 0.000000 0.000000 -1.000000
vn 0.000000 0.000000 -1.000000
vn 0.000000 0.000000 -1.000000
vn 0.000003 0.000000 1.000000
vn 0.000003 0.000000 1.000000
vn 0.000001 0.000000 1.000000
vn 0.000003 0.000000 1.000000
vn 0.000000 0.000000 1.000000
vn 0.000001 0.000000 1.000000
vn 0.000000 0.000000 1.000000
vn 0.000006 0.000000 1.000000
vn 0.000001 0.000000 1.000000
vn 0.000006 0.000000 1.000000
vn 0.000000 0.000000 1.000000
vn 0.000001 0.000000 1.000000
vn 0.000000 0.000000 1.000000
vn -0.000006 0.000000 1.000000
vn 0.000001 0.000000 1.000000
vn -0.000006 0.000000 1.000000
vn 0.000000 0.000000 1.000000
vn 0.000001 0.000000 1.000000
vn 0.000000 0.000000 1.000000
vn 0.000000 0.000000 1.000000
vn 0.000001 0.000000 1.000000
vn 0.000000 0.000000 1.000000
vn 0.000000 0.000000 1.000000
vn 0.000001 0.000000 1.000000
vn 0.000000 0.000000 1.000000
vn 0.000000 0.000000 1.000000
vn 0.000001 0.000000 1.000000
vn 0.000000 0.000000 1.000000
vn 0.000000 0.000000 1.000000
vn 0.000001 0.000000 1.000000
vn 0.000000 0.000000 1.000000
vn 0.000000 0.000000 1.000000
vn 0.000001 0.000000 1.000000
vn 0.000000 0.000000 1.000000
vn -0.000006 0.000000 1.000000
vn 0.000001 0.000000 1.000000
vn -0.000006 0.000000 1.000000
vn 0.000000 0.000000 1.000000
vn 0.000001 0.000000 1.000000
vn 0.000000 0.000000 1.000000
vn 0.000006 0.000000 1.000000
vn 0.000001 0.000000 1.000000
vn 0.000006 0.000000 1.000000
vn 0.000006 0.000000 1.000000
vn 0.000001 0.000000 1.000000
vn 0.000006 0.000000 1.000000
vn 0.000006 0.000000 1.000000
vn 0.000001 0.000000 1.000000
vn 0.000006 0.000000 1.000000
vn 0.000000 0.000000 1.000000
vn 0.000001 0.000000 1.000000
vn 0.000000 0.000000 1.000000
vn 0.000000 0.000000 1.000000
vn 0.000001 0.000000 1.000000
vn 0.000000 0.000000 1.000000
vn 0.000000 0.000000 1.000000
vn 0.000001 0.000000 1.000000
vn 0.000000 0.000000 1.000000
vn 0.000003 0.000000 1.000000
vn 0.000001 0.000000 1.000000
vn 0.000000 0.000000 1.000000
vn 0.000000 0.000000 1.000000
vn 0.000000 0.000000 1.000000
vn 0.000000 0.000000 1.000000
vn 0.000000 0.951558 0.307470
vn 0.000000 0.951558 0.307470
vn 0.000000 0.995294 0.096901
vn 0.000000 0.995294 0.096901
vn 0.000000 0.000000 -1.000000
vn 0.000000 0.000000 -1.000000
vn 0.000000 0.000000 -1.000000
vn 0.000000 0.000000 -1.000000
vn 0.000000 -1.000000 0.000000
vn 0.000000 -1.000000 0.000000
vn 0.000000 -1.000000 0.000000
vn 0.000000 -1.000000 0.000000
vn 0.894439 0.000000 0.447191
vn 0.892224 0.000000 0.451593
vn 0.988823 0.000000 0.149097
vn 0.991842 0.000000 0.127475
vn -0.991842 0.000000 0.127475
vn -0.988823 0.000000 0.149097
vn -0.892224 0.000000 0.451593
vn -0.894439 0.000000 0.447191
vn 0.000000 1.000000 0.000000
vn 0.000000 1.000000 0.000000
vn 0.000000 1.000000 0.000000
vn 0.000000 1.000000 0.000000
vn 0.000000 0.951558 0.307470
vn 0.000000 0.951558 0.307470
vn 0.999277 0.000000 0.038020
vn 0.892224 0.000000 0.451593
vn 0.894439 0.000000 0.447191
vn 0.999277 0.000000 0.038020
vn 0.000000 -1.000000 0.000000
vn 0.000000 -1.000000 0.000000
vn 0.000000 -1.000000 0.000000
vn 0.000000 -1.000000 0.000000
vn 0.000000 -1.000000 0.000000
vn 0.000000 -1.000000 0.000000
vn -0.894439 0.000000 0.447191
vn -0.892224 0.000000 0.451593
vn -0.999277 0.000000 0.038020
vn -0.999277 0.000000 0.038020
vn 0.000000 -1.000000 0.000000
vn 0.000000 -1.000000 0.000000
vn 0.000000 -1.000000 0.000000
vn 0.000000 -1.000000 0.000000
vn 0.991842 0.000000 0.127475
vn 0.988823 0.000000 0.149097
vn 0.991306 0.000000 -0.131578
vn 0.992689 0.000000 -0.120699
vn 0.000000 0.995294 0.096901
vn 0.000000 0.995294 0.096901
vn 0.000000 0.996521 -0.083338
vn 0.000000 0.996521 -0.083338
vn -0.992689 0.000000 -0.120699
vn -0.991306 0.000000 -0.131578
vn -0.988823 0.000000 0.149097
vn -0.991842 0.000000 0.127475
vn 0.000000 -1.000000 0.000000
vn 0.000000 -1.000000 0.000000
vn 0.000000 -1.000000 0.000000
vn 0.000000 -1.000000 0.000000
vn 0.992689 0.000000 -0.120699
vn 0.991306 0.000000 -0.131578
vn 0.956000 0.000000 -0.293366
vn 0.956000 0.000000 -0.293366
vn 0.000000 0.996521 -0.083338
vn 0.000000 0.996521 -0.083338
vn 0.000000 0.972561 -0.232647
vn 0.000000 0.972561 -0.232647
vn -0.956000 0.000000 -0.293366
vn -0.991306 0.000000 -0.131578
vn -0.992689 0.000000 -0.120699
vn -0.956000 0.000000 -0.293366
vn 0.000000 0.000000 1.000000
vn 0.000000 0.000000 1.000000
vn 0.000000 0.000000 1.000000
vn 0.000000 0.000000 1.000000
vn 0.000000 0.000000 1.000000
vn 0.000000 0.000000 1.000000
vn 0.000000 0.000000 1.000000
vn 0.000000 0.000000 1.000000
vn -1.000000 0.000000 0.000000
vn -1.000000 0.000000 0.000000
vn -1.000000 0.000000 0.000000
vn -1.000000 0.000000 0.000000
vn 0.000000 -1.000000 0.000000
vn 0.000000 -1.000000 0.000000
vn 0.000000 -1.000000 0.000000
vn 0.000000 -1.000000 0.000000
vn 0.999277 0.000000 0.038020
vn 0.999277 0.000000 0.038020
vn 1.000000 0.000000 0.000000
vn 1.000000 0.000000 0.000000
vn 0.000000 1.000000 0.000000
vn 0.000000 1.000000 0.000000
vn 0.000000 1.000000 0.000000
vn 0.000000 1.000000 0.000000
vn 0.000000 -1.000000 0.000000
vn 0.000000 -1.000000 0.000000
vn 0.000000 -1.000000 0.000000
vn 0.000000 -1.000000 0.000000
vn 1.000000 0.000000 0.000000
vn 1.000000 0.000000 0.000000
vn 1.000000 0.000000 0.000000
vn 1.000000 0.000000 0.000000
vn 0.000000 1.000000 0.000000
vn 0.000000 1.000000 0.000000
vn 0.000000 1.000000 0.000000
vn 0.000000 1.000000 0.000000
vn -0.999277 0.000000 0.038020
vn -0.999277 0.000000 0.038020
vn -1.000000 0.000000 0.000000
vn -1.000000 0.000000 0.000000
s off
g Turret_Weapon
usemtl initialShadingGroup
f 29/42/105 30/43/106 50/44/107 49/45/108
f 30/43/109 31/46/110 51/47/111 50/44/112
f 31/46/113 32/48/114 52/49/115 51/47/116
f 32/48/117 33/50/118 53/51/119 52/49/120
f 33/50/121 34/52/122 54/53/123 53/51/124
f 34/52/125 35/54/126 55/55/127 54/53/128
f 35/54/129 36/56/130 56/57/131 55/55/132
f 36/56/133 37/58/134 57/59/135 56/57/136
f 37/58/137 38/60/138 58/61/139 57/59/140
f 38/60/141 39/62/142 59/63/143 58/61/144
f 39/62/145 40/64/146 60/65/147 59/63/148
f 40/64/149 41/66/150 61/67/151 60/65/152
f 41/66/153 42/68/154 62/69/155 61/67/156
f 42/68/157 43/70/158 63/71/159 62/69/160
f 43/70/161 44/72/162 64/73/163 63/71/164
f 44/72/165 45/74/166 65/75/167 64/73/168
f 45/74/169 46/76/170 66/77/171 65/75/172
f 46/76/173 47/78/174 67/79/175 66/77/176
f 47/78/177 48/80/178 68/81/179 67/79/180
f 48/80/181 29/82/182 49/83/183 68/81/184
f 30/84/185 29/85/186 69/86/187
f 31/87/188 30/84/189 69/86/190
f 32/88/191 31/87/192 69/86/193
f 33/89/194 32/88/195 69/86/196
f 34/90/197 33/89/198 69/86/199
f 35/91/200 34/90/201 69/86/202
f 36/92/203 35/91/204 69/86/205
f 37/93/206 36/92/207 69/86/208
f 38/94/209 37/93/210 69/86/211
f 39/95/212 38/94/213 69/86/214
f 40/96/215 39/95/216 69/86/217
f 41/97/218 40/96/219 69/86/220
f 42/98/221 41/97/222 69/86/223
f 43/99/224 42/98/225 69/86/226
f 44/100/227 43/99/228 69/86/229
f 45/101/230 44/100/231 69/86/232
f 46/102/233 45/101/234 69/86/235
f 47/103/236 46/102/237 69/86/238
f 48/104/239 47/103/240 69/86/241
f 29/85/242 48/104/243 69/86/244
f 49/105/245 50/106/246 70/107/247
f 50/106/248 51/108/249 70/107/250
f 51/108/251 52/109/252 70/107/253
f 52/109/254 53/110/255 70/107/256
f 53/110/257 54/111/258 70/107/259
f 54/111/260 55/112/261 70/107/262
f 55/112/263 56/113/264 70/107/265
f 56/113/266 57/114/267 70/107/268
f 57/114/269 58/115/270 70/107/271
f 58/115/272 59/116/273 70/107/274
f 59/116/275 60/117/276 70/107/277
f 60/117/278 61/118/279 70/107/280
f 61/118/281 62/119/282 70/107/283
f 62/119/284 63/120/285 70/107/286
f 63/120/287 64/121/288 70/107/289
f 64/121/290 65/122/291 70/107/292
f 65/122/293 66/123/294 70/107/295
f 66/123/296 67/124/297 70/107/298
f 67/124/299 68/125/300 70/107/301
f 68/125/302 49/105/303 70/107/304
f 95/126/305 96/127/306 97/128/307 98/129/308
f 79/130/309 80/131/310 85/132/311 86/133/312
f 75/134/313 76/135/314 78/136/315 77/137/316
f 83/138/317 84/139/318 81/140/319 82/141/320
f 80/142/321 81/143/322 84/144/323 85/145/324
f 86/146/325 83/147/326 82/148/327 79/149/328
f 73/150/329 91/151/330 93/152/331 74/153/332 80/131/333 79/130/334
f 72/154/335 81/143/336 80/142/337 74/153/338
f 82/141/339 81/140/340 72/155/341 94/156/342 92/157/343 71/158/344
f 79/149/345 82/148/346 71/159/347 73/150/348
f 87/160/349 88/161/350 84/139/351 83/138/352
f 85/145/353 84/144/354 88/162/355 89/163/356
f 86/133/357 85/132/358 89/164/359 90/165/360
f 90/166/361 87/167/362 83/147/363 86/146/364
f 77/137/365 78/136/366 88/161/367 87/160/368
f 89/163/369 88/162/370 78/168/371 76/169/372
f 90/165/373 89/164/374 76/135/375 75/134/376
f 77/170/377 87/167/378 90/166/379 75/171/380
f 99/172/381 100/173/382 101/174/383 102/175/384
f 91/151/385 92/176/386 94/177/387 93/152/388
f 93/152/389 94/177/390 96/127/391 95/126/392
f 94/177/393 72/154/394 97/128/395 96/127/396
f 72/154/397 74/153/398 98/129/399 97/128/400
f 74/153/401 93/152/402 95/126/403 98/129/404
f 71/159/405 92/176/406 100/173/407 99/172/408
f 92/176/409 91/151/410 101/174/411 100/173/412
f 91/151/413 73/150/414 102/175/415 101/174/416
f 73/150/417 71/159/418 99/172/419 102/175/420
