# This file uses centimeters as units for non-parametric coordinates.

mtllib Blockout_leveltile_2.mtl
g default
v 3.000000 -0.000000 3.000000
v 3.000000 -6.000000 3.000000
v 3.000000 0.000000 -3.000000
v 3.000000 -6.000000 -3.000000
v -3.000000 -0.000000 3.000000
v -3.000000 0.000000 -3.000000
vt 0.000000 0.000000
vt 1.000000 0.000000
vt 0.000000 1.000000
vt 1.000000 1.000000
vt 0.000000 0.000000
vt 1.000000 0.000000
vt 1.000000 1.000000
vt 0.000000 1.000000
vn 1.000000 0.000000 0.000000
vn 1.000000 0.000000 0.000000
vn 1.000000 0.000000 0.000000
vn 1.000000 0.000000 0.000000
vn 0.000000 1.000000 0.000000
vn 0.000000 1.000000 0.000000
vn 0.000000 1.000000 0.000000
vn 0.000000 1.000000 0.000000
s off
g pPlane114
usemtl initialShadingGroup
f 1/1/1 2/2/2 4/4/3 3/3/4
f 5/5/5 1/6/6 3/7/7 6/8/8
