# This file uses centimeters as units for non-parametric coordinates.

mtllib Blockout_leveltile_Corner.mtl
g default
v -2.000000 -0.250000 4.000000
v 3.000000 -0.250000 4.000000
v -2.000000 2.000000 2.000000
v 2.000000 2.000000 2.000000
v -2.000000 2.000000 -2.000000
v 2.000000 2.000000 -2.000000
v 3.000000 -0.250000 -2.000000
vt 0.375000 0.000000
vt 0.625000 0.000000
vt 0.375000 0.250000
vt 0.625000 0.250000
vt 0.375000 0.500000
vt 0.625000 0.500000
vt 0.875000 0.000000
vt 0.875000 0.250000
vn 0.000000 0.664364 0.747409
vn 0.000000 0.664364 0.747409
vn 0.000000 0.664364 0.747409
vn 0.000000 0.664364 0.747409
vn 0.000000 1.000000 0.000000
vn 0.000000 1.000000 0.000000
vn 0.000000 1.000000 0.000000
vn 0.000000 1.000000 0.000000
vn 0.913812 0.406138 0.000000
vn 0.913812 0.406138 0.000000
vn 0.913812 0.406138 0.000000
vn 0.913812 0.406139 0.000000
s off
g Blockout_leveltile_Corner
usemtl pCube2SG1
f 1/1/1 2/2/2 4/4/3 3/3/4
f 3/3/5 4/4/6 6/6/7 5/5/8
f 2/2/9 7/7/10 6/8/11 4/4/12
