# This file uses centimeters as units for non-parametric coordinates.

mtllib corner baby.mtl
g default
v 2.012741 -0.250000 4.000000
v 8.079895 -0.250000 4.000000
v 2.012741 2.000000 2.000000
v 6.012741 2.000000 2.000000
v 2.012741 2.000000 -2.000000
v 6.012741 2.000000 -2.000000
v 8.079895 -0.250000 -2.000000
vt 0.375000 0.000000
vt 0.625000 0.000000
vt 0.625000 0.250000
vt 0.375000 0.250000
vt 0.625000 0.500000
vt 0.375000 0.500000
vt 0.875000 0.000000
vt 0.875000 0.250000
vn 0.000000 0.664364 0.747409
vn 0.000000 0.664364 0.747409
vn 0.000000 0.664364 0.747409
vn 0.000000 0.664364 0.747409
vn 0.000000 1.000000 0.000000
vn 0.000000 1.000000 0.000000
vn 0.000000 1.000000 0.000000
vn 0.000000 1.000000 0.000000
vn 0.913812 0.406138 0.000000
vn 0.913812 0.406138 0.000000
vn 0.913812 0.406138 0.000000
vn 0.913811 0.406139 0.000000
s off
g Blockout_leveltile_Corner:Blockout_leveltile_Corner
usemtl initialShadingGroup
f 1/1/1 2/2/2 4/3/3 3/4/4
f 3/4/5 4/3/6 6/5/7 5/6/8
f 2/2/9 7/7/10 6/8/11 4/3/12
