# This file uses centimeters as units for non-parametric coordinates.

mtllib node.mtl
g default
v -2.000000 0.207115 2.000000
v 2.000000 0.207115 2.000000
v -2.000000 0.707115 2.000000
v 2.000000 0.707115 2.000000
v -2.000000 0.707115 -2.000000
v 2.000000 0.707115 -2.000000
v -2.000000 0.207115 -2.000000
v 2.000000 0.207115 -2.000000
v -2.939963 -0.000000 2.939963
v 0.000000 -0.000000 2.939963
v 2.939963 -0.000000 2.939963
v -2.939963 -0.000000 0.000000
v 0.000000 0.644074 0.000000
v 2.939963 -0.000000 0.000000
v -2.939963 0.000000 -2.939963
v 0.000000 0.000000 -2.939963
v 2.939963 0.000000 -2.939963
vt 0.257869 0.991456
vt 0.259383 0.873170
vt 0.258626 0.932313
vt 0.318527 0.873927
vt 0.317769 0.933070
vt 0.319284 0.814784
vt 0.376912 0.933827
vt 0.200240 0.872413
vt 0.260140 0.814027
vt 0.199483 0.931556
vt 0.377670 0.874684
vt 0.317012 0.992213
vt 0.013082 0.818153
vt 0.098433 0.817370
vt 0.098822 0.903120
vt 0.183788 0.817380
vt 0.184572 0.902731
vt 0.013855 0.988859
vt 0.099210 0.988870
vt 0.184562 0.988086
vt 0.013072 0.903508
vn 0.000000 0.000000 1.000000
vn 0.000000 0.000000 1.000000
vn 0.000000 0.000000 1.000000
vn 0.000000 0.000000 1.000000
vn 0.000000 1.000000 0.000000
vn 0.000000 1.000000 0.000000
vn 0.000000 1.000000 0.000000
vn 0.000000 1.000000 0.000000
vn 0.000000 0.000000 -1.000000
vn 0.000000 0.000000 -1.000000
vn 0.000000 0.000000 -1.000000
vn 0.000000 0.000000 -1.000000
vn 1.000000 0.000000 0.000000
vn 1.000000 0.000000 0.000000
vn 1.000000 0.000000 0.000000
vn 1.000000 0.000000 0.000000
vn -1.000000 0.000000 0.000000
vn -1.000000 0.000000 0.000000
vn -1.000000 0.000000 0.000000
vn -1.000000 0.000000 0.000000
vn -0.108247 0.988213 0.108247
vn 0.000000 0.976834 0.214000
vn 0.000000 1.000000 0.000000
vn 0.108247 0.988213 0.108247
vn 0.214000 0.976834 0.000000
vn -0.108247 0.988213 -0.108247
vn 0.000000 0.976834 -0.214000
vn 0.108247 0.988213 -0.108247
vn -0.214000 0.976834 0.000000
s off
g Node
usemtl initialShadingGroup
f 1/10/1 2/8/2 4/2/3 3/3/4
f 3/3/5 4/2/6 6/4/7 5/5/8
f 5/5/9 6/4/10 8/11/11 7/7/12
f 2/9/13 8/6/14 6/4/15 4/2/16
f 7/12/17 1/1/18 3/3/19 5/5/20
s 1
f 9/13/21 10/14/22 13/15/23
f 13/15/23 11/16/24 14/17/25
f 15/18/26 13/15/23 16/19/27
f 13/15/23 14/17/25 17/20/28
f 13/15/23 17/20/28 16/19/27
f 9/13/21 13/15/23 12/21/29
f 12/21/29 13/15/23 15/18/26
f 10/14/22 11/16/24 13/15/23
