# This file uses centimeters as units for non-parametric coordinates.

mtllib Refinery.mtl
g default
v 2.665878 0.038682 1.886193
v 2.670656 0.729481 1.875555
v 2.670656 0.729481 -1.875555
v 2.665878 0.038682 -1.886193
v 1.993911 1.091472 1.276815
v 1.993911 1.091472 -1.276815
v -1.653609 1.895880 1.591508
v -1.653609 1.895880 -1.591508
v 1.906527 1.886021 1.138201
v 1.906527 1.886021 -1.138201
v -1.670575 4.535769 1.352905
v -1.670575 4.535769 -1.352905
v 1.081698 4.535769 1.054940
v 1.081698 4.535769 -1.054940
v -1.671325 6.038170 1.054940
v -1.671325 6.038170 -1.054940
v -2.307357 0.653119 2.173554
v -2.307357 0.653118 -2.173554
v -2.309237 0.028441 2.196951
v -2.309237 0.028441 -2.196951
vt 0.625000 0.000000
vt 0.625000 0.250000
vt 0.625000 0.500000
vt 0.750000 0.375000
vt 0.875000 0.250000
vt 0.625000 0.250000
vt 0.625000 0.500000
vt 0.375000 0.500000
vt 0.375000 0.250000
vt 0.625000 0.250000
vt 0.625000 0.500000
vt 0.375000 0.500000
vt 0.375000 0.250000
vt 0.625000 0.250000
vt 0.625000 0.500000
vt 0.625000 0.250000
vt 0.625000 0.500000
vt 0.378609 0.201788
vt 0.378143 0.550761
vt 0.375000 0.000000
vt 0.375000 0.750000
vn 0.060807 0.025509 0.997824
vn 0.060807 0.025509 0.997823
vn 0.060807 0.025509 0.997823
vn 0.060807 0.025509 0.997823
vn 0.060807 0.025509 -0.997824
vn 0.060807 0.025509 -0.997823
vn 0.060807 0.025509 -0.997823
vn 0.060807 0.025509 -0.997823
vn 0.999976 -0.006917 0.000000
vn 0.999976 -0.006917 0.000000
vn 0.999976 -0.006917 0.000000
vn 0.999976 -0.006917 0.000000
vn 0.286651 0.928210 0.237188
vn 0.327643 0.925643 0.189303
vn 0.016874 0.863964 0.503270
vn 0.286651 0.928210 -0.237188
vn 0.327643 0.925643 -0.189303
vn 0.016874 0.863964 -0.503270
vn -0.999996 0.003010 -0.000000
vn -0.999996 0.003010 -0.000000
vn -0.999996 0.003010 -0.000000
vn -0.999996 0.003010 -0.000000
vn 0.146236 0.293517 0.944702
vn 0.128429 0.154013 0.979687
vn 0.128300 0.153060 0.979853
vn 0.146236 0.293517 0.944702
vn 0.994007 0.109321 0.000000
vn 0.994007 0.109321 0.000000
vn 0.967720 0.252029 0.000000
vn 0.967720 0.252029 0.000000
vn 0.128429 0.154013 -0.979687
vn 0.146236 0.293517 -0.944702
vn 0.146236 0.293517 -0.944702
vn 0.128300 0.153060 -0.979853
vn -0.999979 -0.006426 0.000000
vn -0.999979 -0.006426 0.000000
vn -0.999989 -0.004586 0.000000
vn -0.999989 -0.004586 0.000000
vn 0.115585 0.102063 -0.988040
vn 0.116034 0.097705 -0.988428
vn 0.763096 0.646285 0.000000
vn 0.763096 0.646285 0.000000
vn 0.105598 0.193500 -0.975401
vn -1.000000 -0.000499 0.000000
vn -1.000000 -0.000499 0.000000
vn 0.115585 0.102063 0.988040
vn 0.116034 0.097705 0.988428
vn 0.105598 0.193500 0.975401
vn 0.479037 0.877795 0.000000
vn 0.479037 0.877795 0.000000
vn -0.885017 0.465558 -0.000000
vn -0.885017 0.465558 -0.000000
vn -0.885017 0.465558 -0.000000
vn -0.885017 0.465558 -0.000000
s off
g Factory_Refinery
usemtl initialShadingGroup
f 19/20/1 1/1/2 2/2/3 17/18/4
f 3/3/5 4/4/6 20/21/7 18/19/8
f 1/1/9 4/4/10 3/5/11 2/2/12
s 1
f 2/2/13 5/6/14 17/18/15
f 2/2/13 3/3/16 6/7/17 5/6/14
f 6/7/17 3/3/16 18/19/18
s off
f 19/20/19 17/18/20 18/19/21 20/21/22
s 2
f 5/6/23 9/10/24 7/9/25 17/18/26
s 3
f 5/6/27 6/7/28 10/11/29 9/10/30
s 4
f 10/11/31 6/7/32 18/19/33 8/8/34
s 5
f 8/8/35 7/9/36 11/13/37 12/12/38
s 4
f 12/12/39 14/15/40 10/11/31 8/8/34
s 3
f 10/11/29 14/15/41 13/14/42 9/10/30
s 4
f 12/12/39 16/17/43 14/15/40
s 5
f 12/12/38 11/13/37 15/16/44 16/17/45
s 2
f 11/13/46 13/14/47 15/16/48
s 3
f 14/15/41 16/17/49 15/16/50 13/14/42
s off
f 7/9/51 8/8/52 18/19/53 17/18/54
s 2
f 11/13/46 7/9/25 9/10/24 13/14/47
